<svg width="31" height="30" viewBox="0 0 31 30" fill="none" xmlns="http://www.w3.org/2000/svg">
<path opacity="0.5" d="M7.55365 29.9322C6.25665 29.9322 5.04612 29.435 3.92205 28.4406C2.84122 27.403 1.97655 26.0628 1.32805 24.4199C0.722784 22.777 0.42015 21.0261 0.42015 19.1671C0.42015 16.3137 0.917334 13.6332 1.9117 11.1257C2.9493 8.57489 4.20307 6.43484 5.673 4.70551C7.14293 2.93294 8.54802 1.67918 9.88825 0.94421H9.9531L12.2229 3.01941V3.92731C11.142 4.92168 10.126 6.34838 9.1749 8.20741C8.22377 10.0232 7.7482 12.2713 7.7482 14.9518C7.7482 16.3353 7.94275 17.4593 8.33185 18.324C8.72095 19.1887 9.3046 20.1398 10.0828 21.1774C10.7313 21.9988 11.2069 22.7122 11.5095 23.3175C11.8121 23.9227 11.9635 24.6577 11.9635 25.5224C11.9635 26.8194 11.5311 27.8786 10.6664 28.7C9.84502 29.5214 8.80742 29.9322 7.55365 29.9322ZM25.582 29.9322C24.285 29.9322 23.096 29.435 22.0152 28.4406C20.9344 27.403 20.0697 26.0628 19.4212 24.4199C18.8159 22.777 18.5133 21.0261 18.5133 19.1671C18.5133 16.3137 19.0105 13.6332 20.0049 11.1257C21.0425 8.57489 22.2962 6.41323 23.7662 4.64066C25.2361 2.86809 26.6412 1.63594 27.9814 0.94421H28.0463L30.2512 3.01941V3.92731C29.1703 4.92168 28.1543 6.34838 27.2032 8.20741C26.2521 10.0232 25.7765 12.2713 25.7765 14.9518C25.7765 16.3353 25.971 17.4593 26.3602 18.324C26.7493 19.1887 27.3329 20.1398 28.1111 21.1774C28.7596 21.9988 29.2352 22.7122 29.5378 23.3175C29.8404 23.9227 29.9917 24.6577 29.9917 25.5224C29.9917 26.8194 29.5594 27.8786 28.6948 28.7C27.8733 29.5214 26.8357 29.9322 25.582 29.9322Z" fill="#091638"/>
</svg>
